<?xml version="1.0" encoding="UTF-8" standalone="no"?>
<svg
   height="300"
   viewBox="0 0 300 300"
   width="300"
   version="1.1"
   id="svg1"
   sodipodi:docname="Data.svg"
   inkscape:version="1.3.2 (091e20ef0f, 2023-11-25)"
   xmlns:inkscape="http://www.inkscape.org/namespaces/inkscape"
   xmlns:sodipodi="http://sodipodi.sourceforge.net/DTD/sodipodi-0.dtd"
   xmlns="http://www.w3.org/2000/svg"
   xmlns:svg="http://www.w3.org/2000/svg">
  <defs
     id="defs1" />
  <sodipodi:namedview
     id="namedview1"
     pagecolor="#000000"
     bordercolor="#000000"
     borderopacity="0.25"
     inkscape:showpageshadow="2"
     inkscape:pageopacity="0.0"
     inkscape:pagecheckerboard="0"
     inkscape:deskcolor="#d1d1d1"
     inkscape:zoom="0.65243742"
     inkscape:cx="-6.8972132"
     inkscape:cy="203.85097"
     inkscape:window-width="1436"
     inkscape:window-height="484"
     inkscape:window-x="26"
     inkscape:window-y="23"
     inkscape:window-maximized="0"
     inkscape:current-layer="svg1" />
  <g
     id="g1"
     transform="matrix(1.1,0,0,1.1,-14.998177,-16.970273)">
    <g
       fill="#222222"
       id="g2"
       transform="matrix(10.368,0,0,10.368,65.021443,66.032248)"
       style="fill:#ffffff">
      <path
         d="M 16,9.988281 C 16,7.132812 14.484375,4.449219 12,3.015625 9.527344,1.589844 6.472656,1.589844 4,3.015625 1.515625,4.449219 0,7.132812 0,9.988281 c 0,0.554688 0.449219,1 1,1 h 1 c 0.550781,0 1,-0.445312 1,-1 C 2.96875,9.558594 2.664062,9.191406 2.238281,9.089844 2.523438,7.308594 3.425781,5.660156 5,4.75 c 1.859375,-1.074219 4.140625,-1.074219 6,0 1.574219,0.910156 2.476562,2.558594 2.761719,4.339844 C 13.335938,9.191406 13.03125,9.558594 13,9.988281 c 0,0.554688 0.449219,1 1,1 h 1 c 0.550781,0 1,-0.445312 1,-1 z m 0,0"
         id="path1"
         style="fill:#ffffff" />
      <path
         d="m 11,5.683594 -4.480469,4.976562 c -0.00781,0.0078 -0.015625,0.01563 -0.023437,0.02344 -0.125,0.140625 -0.226563,0.296875 -0.308594,0.464844 -0.472656,0.996093 -0.046875,2.191406 0.949219,2.664062 0.996093,0.472656 2.191406,0.05078 2.664062,-0.949219 C 9.871094,12.71875 9.921875,12.5625 9.953125,12.402344 h 0.00391 l 0.00781,-0.05469 0.00781,-0.04297 c 0.00391,-0.01172 0.00391,-0.02344 0.00391,-0.03516 z m 0,0"
         id="path2"
         style="fill:#ffffff" />
    </g>
  </g>
</svg>
