<?xml version="1.0" encoding="UTF-8" standalone="no"?>
<svg
   height="300"
   viewBox="0 0 300 300"
   width="300"
   version="1.1"
   id="svg1"
   sodipodi:docname="FinalSteps.svg"
   inkscape:version="1.3.2 (091e20ef0f, 2023-11-25)"
   xmlns:inkscape="http://www.inkscape.org/namespaces/inkscape"
   xmlns:sodipodi="http://sodipodi.sourceforge.net/DTD/sodipodi-0.dtd"
   xmlns="http://www.w3.org/2000/svg"
   xmlns:svg="http://www.w3.org/2000/svg">
  <defs
     id="defs1" />
  <sodipodi:namedview
     id="namedview1"
     pagecolor="#000000"
     bordercolor="#000000"
     borderopacity="0.25"
     inkscape:showpageshadow="2"
     inkscape:pageopacity="0.0"
     inkscape:pagecheckerboard="0"
     inkscape:deskcolor="#d1d1d1"
     inkscape:zoom="0.65243742"
     inkscape:cx="85.831987"
     inkscape:cy="167.06583"
     inkscape:window-width="862"
     inkscape:window-height="738"
     inkscape:window-x="26"
     inkscape:window-y="23"
     inkscape:window-maximized="0"
     inkscape:current-layer="svg1" />
  <path
     d="m 111.99655,86.2493 c -5.51251,0 -11.02503,1.612512 -15.6,4.649952 -4.612506,3.037536 -8.287487,7.425024 -10.537535,12.450048 -2.249952,5.02503 -3.074976,10.64996 -2.812512,16.12504 0.26304,5.51251 1.537536,10.9125 2.887584,16.27497 l 6.862467,27.3 h 38.399996 l 6.82502,-28.91251 c 1.23744,-5.21251 2.43744,-10.46246 2.58749,-15.82502 0.1872,-5.36247 -0.71232,-10.80001 -2.96256,-15.67499 -2.24995,-4.837538 -5.88749,-9.074978 -10.42493,-11.962466 -4.5,-2.887488 -9.86256,-4.425025 -15.22502,-4.425024 z m 76.8,19.2 c -5.51251,0 -11.02503,1.61251 -15.6,4.64996 -4.61251,3.03754 -8.28749,7.42503 -10.53754,12.45005 -2.24995,5.02503 -3.07497,10.64995 -2.81251,16.12501 0.26304,5.51252 1.53754,10.91252 2.88758,16.27498 l 6.86247,27.3 h 38.4 l 6.82502,-28.91251 c 1.23744,-5.21251 2.43744,-10.46247 2.58749,-15.82503 0.1872,-5.36246 -0.71232,-10.79998 -2.96256,-15.67496 -2.24995,-4.83754 -5.88749,-9.07498 -10.42493,-11.96247 -4.5,-2.88749 -9.86256,-4.42503 -15.22502,-4.42503 z m -95.999996,67.2 v 9.6 h 0.0384 c 0,6.82502 3.674966,13.12502 9.599996,16.57498 5.92502,3.41251 13.2,3.41251 19.16246,0 5.88749,-3.44996 9.56247,-9.74996 9.56247,-16.57498 h 0.0384 v -9.6 z m 76.799996,19.2 v 9.6 h 0.0384 c 0,6.82502 3.67497,13.12502 9.6,16.57498 5.92502,3.41251 13.2,3.41251 19.16246,0 5.88759,-3.44996 9.56256,-9.74996 9.56256,-16.57498 h 0.0384 v -9.6 z m 0,0"
     fill="#222222"
     id="path1"
     style="fill:#ffffff;stroke-width:9.6" />
</svg>
